<svg viewBox="0 0 405 177" fill="none" xmlns="http://www.w3.org/2000/svg">
<path d="M0 20C0 8.95431 8.95431 0 20 0H295C306.046 0 315 8.95431 315 20V71L405 93L315 114V157C315 168.046 306.046 177 295 177H20C8.9543 177 0 168.046 0 157V20Z" fill="white"/>
<path d="M56.8715 36.2V53H53.7515V45.8H45.0635V53H41.9435V36.2H45.0635V43.136H53.7515V36.2H56.8715ZM73.1332 46.664C73.1332 46.872 73.1172 47.168 73.0852 47.552H63.0292C63.2052 48.496 63.6612 49.248 64.3972 49.808C65.1492 50.352 66.0772 50.624 67.1812 50.624C68.5892 50.624 69.7492 50.16 70.6612 49.232L72.2692 51.08C71.6932 51.768 70.9652 52.288 70.0852 52.64C69.2052 52.992 68.2132 53.168 67.1092 53.168C65.7012 53.168 64.4612 52.888 63.3892 52.328C62.3172 51.768 61.4852 50.992 60.8932 50C60.3172 48.992 60.0292 47.856 60.0292 46.592C60.0292 45.344 60.3092 44.224 60.8692 43.232C61.4452 42.224 62.2372 41.44 63.2452 40.88C64.2532 40.32 65.3892 40.04 66.6532 40.04C67.9012 40.04 69.0132 40.32 69.9892 40.88C70.9812 41.424 71.7492 42.2 72.2932 43.208C72.8532 44.2 73.1332 45.352 73.1332 46.664ZM66.6532 42.44C65.6932 42.44 64.8772 42.728 64.2052 43.304C63.5492 43.864 63.1492 44.616 63.0052 45.56H70.2772C70.1492 44.632 69.7572 43.88 69.1012 43.304C68.4452 42.728 67.6292 42.44 66.6532 42.44ZM67.8052 35.144H71.3332L67.1572 38.432H64.5652L67.8052 35.144ZM75.6309 36.2H79.1829L78.5829 47.432H76.2069L75.6309 36.2ZM77.4069 53.168C76.8469 53.168 76.3829 52.992 76.0149 52.64C75.6469 52.272 75.4629 51.824 75.4629 51.296C75.4629 50.768 75.6469 50.328 76.0149 49.976C76.3829 49.624 76.8469 49.448 77.4069 49.448C77.9509 49.448 78.3989 49.624 78.7509 49.976C79.1189 50.328 79.3029 50.768 79.3029 51.296C79.3029 51.824 79.1189 52.272 78.7509 52.64C78.3989 52.992 77.9509 53.168 77.4069 53.168ZM89.6154 36.2H96.9594C98.7514 36.2 100.343 36.552 101.735 37.256C103.127 37.944 104.207 38.928 104.975 40.208C105.743 41.472 106.127 42.936 106.127 44.6C106.127 46.264 105.743 47.736 104.975 49.016C104.207 50.28 103.127 51.264 101.735 51.968C100.343 52.656 98.7514 53 96.9594 53H89.6154V36.2ZM96.8154 50.36C98.0474 50.36 99.1274 50.128 100.055 49.664C100.999 49.184 101.719 48.512 102.215 47.648C102.727 46.768 102.983 45.752 102.983 44.6C102.983 43.448 102.727 42.44 102.215 41.576C101.719 40.696 100.999 40.024 100.055 39.56C99.1274 39.08 98.0474 38.84 96.8154 38.84H92.7354V50.36H96.8154ZM114.916 53.168C113.62 53.168 112.452 52.888 111.412 52.328C110.372 51.768 109.556 50.992 108.964 50C108.388 48.992 108.1 47.856 108.1 46.592C108.1 45.328 108.388 44.2 108.964 43.208C109.556 42.216 110.372 41.44 111.412 40.88C112.452 40.32 113.62 40.04 114.916 40.04C116.228 40.04 117.404 40.32 118.444 40.88C119.484 41.44 120.292 42.216 120.868 43.208C121.46 44.2 121.756 45.328 121.756 46.592C121.756 47.856 121.46 48.992 120.868 50C120.292 50.992 119.484 51.768 118.444 52.328C117.404 52.888 116.228 53.168 114.916 53.168ZM114.916 50.6C116.02 50.6 116.932 50.232 117.652 49.496C118.372 48.76 118.732 47.792 118.732 46.592C118.732 45.392 118.372 44.424 117.652 43.688C116.932 42.952 116.02 42.584 114.916 42.584C113.812 42.584 112.9 42.952 112.18 43.688C111.476 44.424 111.124 45.392 111.124 46.592C111.124 47.792 111.476 48.76 112.18 49.496C112.9 50.232 113.812 50.6 114.916 50.6ZM131.896 40.04C133.512 40.04 134.808 40.512 135.784 41.456C136.76 42.4 137.248 43.8 137.248 45.656V53H134.248V46.04C134.248 44.92 133.984 44.08 133.456 43.52C132.928 42.944 132.176 42.656 131.2 42.656C130.096 42.656 129.224 42.992 128.584 43.664C127.944 44.32 127.624 45.272 127.624 46.52V53H124.624V40.184H127.48V41.84C127.976 41.248 128.6 40.8 129.352 40.496C130.104 40.192 130.952 40.04 131.896 40.04ZM148.326 40.04C149.942 40.04 151.238 40.512 152.214 41.456C153.19 42.4 153.678 43.8 153.678 45.656V53H150.678V46.04C150.678 44.92 150.414 44.08 149.886 43.52C149.358 42.944 148.606 42.656 147.63 42.656C146.526 42.656 145.654 42.992 145.014 43.664C144.374 44.32 144.054 45.272 144.054 46.52V53H141.054V40.184H143.91V41.84C144.406 41.248 145.03 40.8 145.782 40.496C146.534 40.192 147.382 40.04 148.326 40.04ZM169.649 46.664C169.649 46.872 169.633 47.168 169.601 47.552H159.545C159.721 48.496 160.177 49.248 160.913 49.808C161.665 50.352 162.593 50.624 163.697 50.624C165.105 50.624 166.265 50.16 167.177 49.232L168.785 51.08C168.209 51.768 167.481 52.288 166.601 52.64C165.721 52.992 164.729 53.168 163.625 53.168C162.217 53.168 160.977 52.888 159.905 52.328C158.833 51.768 158.001 50.992 157.409 50C156.833 48.992 156.545 47.856 156.545 46.592C156.545 45.344 156.825 44.224 157.385 43.232C157.961 42.224 158.753 41.44 159.761 40.88C160.769 40.32 161.905 40.04 163.169 40.04C164.417 40.04 165.529 40.32 166.505 40.88C167.497 41.424 168.265 42.2 168.809 43.208C169.369 44.2 169.649 45.352 169.649 46.664ZM163.169 42.44C162.209 42.44 161.393 42.728 160.721 43.304C160.065 43.864 159.665 44.616 159.521 45.56H166.793C166.665 44.632 166.273 43.88 165.617 43.304C164.961 42.728 164.145 42.44 163.169 42.44ZM172.117 45.08H178.717V47.576H172.117V45.08ZM198.175 40.04C199.791 40.04 201.071 40.512 202.015 41.456C202.959 42.384 203.431 43.784 203.431 45.656V53H200.431V46.04C200.431 44.92 200.183 44.08 199.687 43.52C199.191 42.944 198.479 42.656 197.551 42.656C196.543 42.656 195.735 42.992 195.127 43.664C194.519 44.32 194.215 45.264 194.215 46.496V53H191.215V46.04C191.215 44.92 190.967 44.08 190.471 43.52C189.975 42.944 189.263 42.656 188.335 42.656C187.311 42.656 186.495 42.984 185.887 43.64C185.295 44.296 184.999 45.248 184.999 46.496V53H181.999V40.184H184.855V41.816C185.335 41.24 185.935 40.8 186.655 40.496C187.375 40.192 188.175 40.04 189.055 40.04C190.015 40.04 190.863 40.224 191.599 40.592C192.351 40.944 192.943 41.472 193.375 42.176C193.903 41.504 194.583 40.984 195.415 40.616C196.247 40.232 197.167 40.04 198.175 40.04ZM213.142 53.168C211.846 53.168 210.678 52.888 209.638 52.328C208.598 51.768 207.782 50.992 207.19 50C206.614 48.992 206.326 47.856 206.326 46.592C206.326 45.328 206.614 44.2 207.19 43.208C207.782 42.216 208.598 41.44 209.638 40.88C210.678 40.32 211.846 40.04 213.142 40.04C214.454 40.04 215.63 40.32 216.67 40.88C217.71 41.44 218.518 42.216 219.094 43.208C219.686 44.2 219.982 45.328 219.982 46.592C219.982 47.856 219.686 48.992 219.094 50C218.518 50.992 217.71 51.768 216.67 52.328C215.63 52.888 214.454 53.168 213.142 53.168ZM213.142 50.6C214.246 50.6 215.158 50.232 215.878 49.496C216.598 48.76 216.958 47.792 216.958 46.592C216.958 45.392 216.598 44.424 215.878 43.688C215.158 42.952 214.246 42.584 213.142 42.584C212.038 42.584 211.126 42.952 210.406 43.688C209.702 44.424 209.35 45.392 209.35 46.592C209.35 47.792 209.702 48.76 210.406 49.496C211.126 50.232 212.038 50.6 213.142 50.6ZM222.851 40.184H225.851V53H222.851V40.184ZM224.363 38.072C223.819 38.072 223.363 37.904 222.995 37.568C222.627 37.216 222.443 36.784 222.443 36.272C222.443 35.76 222.627 35.336 222.995 35C223.363 34.648 223.819 34.472 224.363 34.472C224.907 34.472 225.363 34.64 225.731 34.976C226.099 35.296 226.283 35.704 226.283 36.2C226.283 36.728 226.099 37.176 225.731 37.544C225.379 37.896 224.923 38.072 224.363 38.072ZM242.301 53.168C240.973 53.168 239.781 52.888 238.725 52.328C237.669 51.768 236.845 50.992 236.253 50C235.661 48.992 235.365 47.856 235.365 46.592C235.365 45.328 235.661 44.2 236.253 43.208C236.845 42.216 237.661 41.44 238.701 40.88C239.757 40.32 240.957 40.04 242.301 40.04C243.565 40.04 244.669 40.296 245.613 40.808C246.573 41.32 247.293 42.056 247.773 43.016L245.469 44.36C245.101 43.768 244.637 43.328 244.077 43.04C243.533 42.736 242.933 42.584 242.277 42.584C241.157 42.584 240.229 42.952 239.493 43.688C238.757 44.408 238.389 45.376 238.389 46.592C238.389 47.808 238.749 48.784 239.469 49.52C240.205 50.24 241.141 50.6 242.277 50.6C242.933 50.6 243.533 50.456 244.077 50.168C244.637 49.864 245.101 49.416 245.469 48.824L247.773 50.168C247.277 51.128 246.549 51.872 245.589 52.4C244.645 52.912 243.549 53.168 242.301 53.168ZM262.227 46.664C262.227 46.872 262.211 47.168 262.179 47.552H252.123C252.299 48.496 252.755 49.248 253.491 49.808C254.243 50.352 255.171 50.624 256.275 50.624C257.683 50.624 258.843 50.16 259.755 49.232L261.363 51.08C260.787 51.768 260.059 52.288 259.179 52.64C258.299 52.992 257.307 53.168 256.203 53.168C254.795 53.168 253.555 52.888 252.483 52.328C251.411 51.768 250.579 50.992 249.987 50C249.411 48.992 249.123 47.856 249.123 46.592C249.123 45.344 249.403 44.224 249.963 43.232C250.539 42.224 251.331 41.44 252.339 40.88C253.347 40.32 254.483 40.04 255.747 40.04C256.995 40.04 258.107 40.32 259.083 40.88C260.075 41.424 260.843 42.2 261.387 43.208C261.947 44.2 262.227 45.352 262.227 46.664ZM255.747 42.44C254.787 42.44 253.971 42.728 253.299 43.304C252.643 43.864 252.243 44.616 252.099 45.56H259.371C259.243 44.632 258.851 43.88 258.195 43.304C257.539 42.728 256.723 42.44 255.747 42.44ZM272.813 52.304C272.461 52.592 272.029 52.808 271.517 52.952C271.021 53.096 270.493 53.168 269.933 53.168C268.525 53.168 267.437 52.8 266.669 52.064C265.901 51.328 265.517 50.256 265.517 48.848V42.68H263.405V40.28H265.517V37.352H268.517V40.28H271.949V42.68H268.517V48.776C268.517 49.4 268.669 49.88 268.973 50.216C269.277 50.536 269.717 50.696 270.293 50.696C270.965 50.696 271.525 50.52 271.973 50.168L272.813 52.304ZM56.4858 82.168C55.1898 82.168 54.0218 81.888 52.9818 81.328C51.9418 80.768 51.1258 79.992 50.5338 79C49.9578 77.992 49.6698 76.856 49.6698 75.592C49.6698 74.328 49.9578 73.2 50.5338 72.208C51.1258 71.216 51.9418 70.44 52.9818 69.88C54.0218 69.32 55.1898 69.04 56.4858 69.04C57.7978 69.04 58.9738 69.32 60.0138 69.88C61.0538 70.44 61.8618 71.216 62.4378 72.208C63.0298 73.2 63.3258 74.328 63.3258 75.592C63.3258 76.856 63.0298 77.992 62.4378 79C61.8618 79.992 61.0538 80.768 60.0138 81.328C58.9738 81.888 57.7978 82.168 56.4858 82.168ZM56.4858 79.6C57.5898 79.6 58.5018 79.232 59.2218 78.496C59.9418 77.76 60.3018 76.792 60.3018 75.592C60.3018 74.392 59.9418 73.424 59.2218 72.688C58.5018 71.952 57.5898 71.584 56.4858 71.584C55.3818 71.584 54.4698 71.952 53.7498 72.688C53.0458 73.424 52.6938 74.392 52.6938 75.592C52.6938 76.792 53.0458 77.76 53.7498 78.496C54.4698 79.232 55.3818 79.6 56.4858 79.6ZM69.0506 71.056C69.9146 69.712 71.4346 69.04 73.6106 69.04V71.896C73.3546 71.848 73.1226 71.824 72.9146 71.824C71.7466 71.824 70.8346 72.168 70.1786 72.856C69.5226 73.528 69.1946 74.504 69.1946 75.784V82H66.1946V69.184H69.0506V71.056ZM94.9535 75.664C94.9535 75.872 94.9375 76.168 94.9055 76.552H84.8495C85.0255 77.496 85.4815 78.248 86.2175 78.808C86.9695 79.352 87.8975 79.624 89.0015 79.624C90.4095 79.624 91.5695 79.16 92.4815 78.232L94.0895 80.08C93.5135 80.768 92.7855 81.288 91.9055 81.64C91.0255 81.992 90.0335 82.168 88.9295 82.168C87.5215 82.168 86.2815 81.888 85.2095 81.328C84.1375 80.768 83.3055 79.992 82.7135 79C82.1375 77.992 81.8495 76.856 81.8495 75.592C81.8495 74.344 82.1295 73.224 82.6895 72.232C83.2655 71.224 84.0575 70.44 85.0655 69.88C86.0735 69.32 87.2095 69.04 88.4735 69.04C89.7215 69.04 90.8335 69.32 91.8095 69.88C92.8015 70.424 93.5695 71.2 94.1135 72.208C94.6735 73.2 94.9535 74.352 94.9535 75.664ZM88.4735 71.44C87.5135 71.44 86.6975 71.728 86.0255 72.304C85.3695 72.864 84.9695 73.616 84.8255 74.56H92.0975C91.9695 73.632 91.5775 72.88 90.9215 72.304C90.2655 71.728 89.4495 71.44 88.4735 71.44ZM105.539 81.304C105.187 81.592 104.755 81.808 104.243 81.952C103.747 82.096 103.219 82.168 102.659 82.168C101.251 82.168 100.163 81.8 99.3952 81.064C98.6272 80.328 98.2432 79.256 98.2432 77.848V71.68H96.1312V69.28H98.2432V66.352H101.243V69.28H104.675V71.68H101.243V77.776C101.243 78.4 101.395 78.88 101.699 79.216C102.003 79.536 102.443 79.696 103.019 79.696C103.691 79.696 104.251 79.52 104.699 79.168L105.539 81.304ZM114.64 64.192H117.64V82H114.64V64.192ZM133.625 75.664C133.625 75.872 133.609 76.168 133.577 76.552H123.521C123.697 77.496 124.153 78.248 124.889 78.808C125.641 79.352 126.569 79.624 127.673 79.624C129.081 79.624 130.241 79.16 131.153 78.232L132.761 80.08C132.185 80.768 131.457 81.288 130.577 81.64C129.697 81.992 128.705 82.168 127.601 82.168C126.193 82.168 124.953 81.888 123.881 81.328C122.809 80.768 121.977 79.992 121.385 79C120.809 77.992 120.521 76.856 120.521 75.592C120.521 74.344 120.801 73.224 121.361 72.232C121.937 71.224 122.729 70.44 123.737 69.88C124.745 69.32 125.881 69.04 127.145 69.04C128.393 69.04 129.505 69.32 130.481 69.88C131.473 70.424 132.241 71.2 132.785 72.208C133.345 73.2 133.625 74.352 133.625 75.664ZM127.145 71.44C126.185 71.44 125.369 71.728 124.697 72.304C124.041 72.864 123.641 73.616 123.497 74.56H130.769C130.641 73.632 130.249 72.88 129.593 72.304C128.937 71.728 128.121 71.44 127.145 71.44ZM150.244 69.04C151.492 69.04 152.604 69.312 153.58 69.856C154.572 70.4 155.348 71.168 155.908 72.16C156.468 73.152 156.748 74.296 156.748 75.592C156.748 76.888 156.468 78.04 155.908 79.048C155.348 80.04 154.572 80.808 153.58 81.352C152.604 81.896 151.492 82.168 150.244 82.168C148.516 82.168 147.148 81.592 146.14 80.44V86.656H143.14V69.184H145.996V70.864C146.492 70.256 147.1 69.8 147.82 69.496C148.556 69.192 149.364 69.04 150.244 69.04ZM149.908 79.6C151.012 79.6 151.916 79.232 152.62 78.496C153.34 77.76 153.7 76.792 153.7 75.592C153.7 74.392 153.34 73.424 152.62 72.688C151.916 71.952 151.012 71.584 149.908 71.584C149.188 71.584 148.54 71.752 147.964 72.088C147.388 72.408 146.932 72.872 146.596 73.48C146.26 74.088 146.092 74.792 146.092 75.592C146.092 76.392 146.26 77.096 146.596 77.704C146.932 78.312 147.388 78.784 147.964 79.12C148.54 79.44 149.188 79.6 149.908 79.6ZM164.325 69.04C166.213 69.04 167.653 69.496 168.645 70.408C169.653 71.304 170.157 72.664 170.157 74.488V82H167.325V80.44C166.957 81 166.429 81.432 165.741 81.736C165.069 82.024 164.253 82.168 163.293 82.168C162.333 82.168 161.493 82.008 160.773 81.688C160.053 81.352 159.493 80.896 159.093 80.32C158.709 79.728 158.517 79.064 158.517 78.328C158.517 77.176 158.941 76.256 159.789 75.568C160.653 74.864 162.005 74.512 163.845 74.512H167.157V74.32C167.157 73.424 166.885 72.736 166.341 72.256C165.813 71.776 165.021 71.536 163.965 71.536C163.245 71.536 162.533 71.648 161.829 71.872C161.141 72.096 160.557 72.408 160.077 72.808L158.901 70.624C159.573 70.112 160.381 69.72 161.325 69.448C162.269 69.176 163.269 69.04 164.325 69.04ZM163.917 79.984C164.669 79.984 165.333 79.816 165.909 79.48C166.501 79.128 166.917 78.632 167.157 77.992V76.504H164.061C162.333 76.504 161.469 77.072 161.469 78.208C161.469 78.752 161.685 79.184 162.117 79.504C162.549 79.824 163.149 79.984 163.917 79.984ZM177.967 82.168C176.927 82.168 175.911 82.032 174.919 81.76C173.927 81.488 173.135 81.144 172.543 80.728L173.695 78.448C174.271 78.832 174.959 79.144 175.759 79.384C176.575 79.608 177.375 79.72 178.159 79.72C179.951 79.72 180.847 79.248 180.847 78.304C180.847 77.856 180.615 77.544 180.151 77.368C179.703 77.192 178.975 77.024 177.967 76.864C176.911 76.704 176.047 76.52 175.375 76.312C174.719 76.104 174.143 75.744 173.647 75.232C173.167 74.704 172.927 73.976 172.927 73.048C172.927 71.832 173.431 70.864 174.439 70.144C175.463 69.408 176.839 69.04 178.567 69.04C179.447 69.04 180.327 69.144 181.207 69.352C182.087 69.544 182.807 69.808 183.367 70.144L182.215 72.424C181.127 71.784 179.903 71.464 178.543 71.464C177.663 71.464 176.991 71.6 176.527 71.872C176.079 72.128 175.855 72.472 175.855 72.904C175.855 73.384 176.095 73.728 176.575 73.936C177.071 74.128 177.831 74.312 178.855 74.488C179.879 74.648 180.719 74.832 181.375 75.04C182.031 75.248 182.591 75.6 183.055 76.096C183.535 76.592 183.775 77.296 183.775 78.208C183.775 79.408 183.255 80.368 182.215 81.088C181.175 81.808 179.759 82.168 177.967 82.168ZM190.319 82.168C189.279 82.168 188.263 82.032 187.271 81.76C186.279 81.488 185.487 81.144 184.895 80.728L186.047 78.448C186.623 78.832 187.311 79.144 188.111 79.384C188.927 79.608 189.727 79.72 190.511 79.72C192.303 79.72 193.199 79.248 193.199 78.304C193.199 77.856 192.967 77.544 192.503 77.368C192.055 77.192 191.327 77.024 190.319 76.864C189.263 76.704 188.399 76.52 187.727 76.312C187.071 76.104 186.495 75.744 185.999 75.232C185.519 74.704 185.279 73.976 185.279 73.048C185.279 71.832 185.783 70.864 186.791 70.144C187.815 69.408 189.191 69.04 190.919 69.04C191.799 69.04 192.679 69.144 193.559 69.352C194.439 69.544 195.159 69.808 195.719 70.144L194.567 72.424C193.479 71.784 192.255 71.464 190.895 71.464C190.015 71.464 189.343 71.6 188.879 71.872C188.431 72.128 188.207 72.472 188.207 72.904C188.207 73.384 188.447 73.728 188.927 73.936C189.423 74.128 190.183 74.312 191.207 74.488C192.231 74.648 193.071 74.832 193.727 75.04C194.383 75.248 194.943 75.6 195.407 76.096C195.887 76.592 196.127 77.296 196.127 78.208C196.127 79.408 195.607 80.368 194.567 81.088C193.527 81.808 192.111 82.168 190.319 82.168ZM203.606 69.04C205.494 69.04 206.934 69.496 207.926 70.408C208.934 71.304 209.438 72.664 209.438 74.488V82H206.606V80.44C206.238 81 205.71 81.432 205.022 81.736C204.35 82.024 203.534 82.168 202.574 82.168C201.614 82.168 200.774 82.008 200.054 81.688C199.334 81.352 198.774 80.896 198.374 80.32C197.99 79.728 197.798 79.064 197.798 78.328C197.798 77.176 198.222 76.256 199.07 75.568C199.934 74.864 201.286 74.512 203.126 74.512H206.438V74.32C206.438 73.424 206.166 72.736 205.622 72.256C205.094 71.776 204.302 71.536 203.246 71.536C202.526 71.536 201.814 71.648 201.11 71.872C200.422 72.096 199.838 72.408 199.358 72.808L198.182 70.624C198.854 70.112 199.662 69.72 200.606 69.448C201.55 69.176 202.55 69.04 203.606 69.04ZM203.198 79.984C203.95 79.984 204.614 79.816 205.19 79.48C205.782 79.128 206.198 78.632 206.438 77.992V76.504H203.342C201.614 76.504 200.75 77.072 200.75 78.208C200.75 78.752 200.966 79.184 201.398 79.504C201.83 79.824 202.43 79.984 203.198 79.984ZM226.126 69.184V80.056C226.126 84.568 223.822 86.824 219.214 86.824C217.982 86.824 216.814 86.664 215.71 86.344C214.606 86.04 213.694 85.592 212.974 85L214.318 82.744C214.878 83.208 215.582 83.576 216.43 83.848C217.294 84.136 218.166 84.28 219.046 84.28C220.454 84.28 221.486 83.96 222.142 83.32C222.798 82.68 223.126 81.704 223.126 80.392V79.72C222.614 80.28 221.99 80.704 221.254 80.992C220.518 81.28 219.71 81.424 218.83 81.424C217.614 81.424 216.51 81.168 215.518 80.656C214.542 80.128 213.766 79.392 213.19 78.448C212.63 77.504 212.35 76.424 212.35 75.208C212.35 73.992 212.63 72.92 213.19 71.992C213.766 71.048 214.542 70.32 215.518 69.808C216.51 69.296 217.614 69.04 218.83 69.04C219.758 69.04 220.598 69.192 221.35 69.496C222.118 69.8 222.758 70.264 223.27 70.888V69.184H226.126ZM219.286 78.88C220.422 78.88 221.35 78.544 222.07 77.872C222.806 77.184 223.174 76.296 223.174 75.208C223.174 74.136 222.806 73.264 222.07 72.592C221.35 71.92 220.422 71.584 219.286 71.584C218.134 71.584 217.19 71.92 216.454 72.592C215.734 73.264 215.374 74.136 215.374 75.208C215.374 76.296 215.734 77.184 216.454 77.872C217.19 78.544 218.134 78.88 219.286 78.88ZM242.118 75.664C242.118 75.872 242.102 76.168 242.07 76.552H232.014C232.19 77.496 232.646 78.248 233.382 78.808C234.134 79.352 235.062 79.624 236.166 79.624C237.574 79.624 238.734 79.16 239.646 78.232L241.254 80.08C240.678 80.768 239.95 81.288 239.07 81.64C238.19 81.992 237.198 82.168 236.094 82.168C234.686 82.168 233.446 81.888 232.374 81.328C231.302 80.768 230.47 79.992 229.878 79C229.302 77.992 229.014 76.856 229.014 75.592C229.014 74.344 229.294 73.224 229.854 72.232C230.43 71.224 231.222 70.44 232.23 69.88C233.238 69.32 234.374 69.04 235.638 69.04C236.886 69.04 237.998 69.32 238.974 69.88C239.966 70.424 240.734 71.2 241.278 72.208C241.838 73.2 242.118 74.352 242.118 75.664ZM235.638 71.44C234.678 71.44 233.862 71.728 233.19 72.304C232.534 72.864 232.134 73.616 231.99 74.56H239.262C239.134 73.632 238.742 72.88 238.086 72.304C237.43 71.728 236.614 71.44 235.638 71.44ZM256.528 69.04C258.416 69.04 259.856 69.496 260.848 70.408C261.856 71.304 262.36 72.664 262.36 74.488V82H259.528V80.44C259.16 81 258.632 81.432 257.944 81.736C257.272 82.024 256.456 82.168 255.496 82.168C254.536 82.168 253.696 82.008 252.976 81.688C252.256 81.352 251.696 80.896 251.296 80.32C250.912 79.728 250.72 79.064 250.72 78.328C250.72 77.176 251.144 76.256 251.992 75.568C252.856 74.864 254.208 74.512 256.048 74.512H259.36V74.32C259.36 73.424 259.088 72.736 258.544 72.256C258.016 71.776 257.224 71.536 256.168 71.536C255.448 71.536 254.736 71.648 254.032 71.872C253.344 72.096 252.76 72.408 252.28 72.808L251.104 70.624C251.776 70.112 252.584 69.72 253.528 69.448C254.472 69.176 255.472 69.04 256.528 69.04ZM256.12 79.984C256.872 79.984 257.536 79.816 258.112 79.48C258.704 79.128 259.12 78.632 259.36 77.992V76.504H256.264C254.536 76.504 253.672 77.072 253.672 78.208C253.672 78.752 253.888 79.184 254.32 79.504C254.752 79.824 255.352 79.984 256.12 79.984ZM252.04 64.144H255.568L258.808 67.432H256.216L252.04 64.144ZM62.2052 94.2H65.3252V108.36H74.1092V111H62.2052V94.2ZM81.2976 98.04C83.1856 98.04 84.6256 98.496 85.6176 99.408C86.6256 100.304 87.1296 101.664 87.1296 103.488V111H84.2976V109.44C83.9296 110 83.4016 110.432 82.7136 110.736C82.0416 111.024 81.2256 111.168 80.2656 111.168C79.3056 111.168 78.4656 111.008 77.7456 110.688C77.0256 110.352 76.4656 109.896 76.0656 109.32C75.6816 108.728 75.4896 108.064 75.4896 107.328C75.4896 106.176 75.9136 105.256 76.7616 104.568C77.6256 103.864 78.9776 103.512 80.8176 103.512H84.1296V103.32C84.1296 102.424 83.8576 101.736 83.3136 101.256C82.7856 100.776 81.9936 100.536 80.9376 100.536C80.2176 100.536 79.5056 100.648 78.8016 100.872C78.1136 101.096 77.5296 101.408 77.0496 101.808L75.8736 99.624C76.5456 99.112 77.3536 98.72 78.2976 98.448C79.2416 98.176 80.2416 98.04 81.2976 98.04ZM80.8896 108.984C81.6416 108.984 82.3056 108.816 82.8816 108.48C83.4736 108.128 83.8896 107.632 84.1296 106.992V105.504H81.0336C79.3056 105.504 78.4416 106.072 78.4416 107.208C78.4416 107.752 78.6576 108.184 79.0896 108.504C79.5216 108.824 80.1216 108.984 80.8896 108.984ZM104.813 94.2C106.269 94.2 107.533 94.44 108.605 94.92C109.693 95.4 110.525 96.088 111.101 96.984C111.677 97.88 111.965 98.944 111.965 100.176C111.965 101.392 111.677 102.456 111.101 103.368C110.525 104.264 109.693 104.952 108.605 105.432C107.533 105.912 106.269 106.152 104.813 106.152H101.021V111H97.9005V94.2H104.813ZM104.669 103.512C106.029 103.512 107.061 103.224 107.765 102.648C108.469 102.072 108.821 101.248 108.821 100.176C108.821 99.104 108.469 98.28 107.765 97.704C107.061 97.128 106.029 96.84 104.669 96.84H101.021V103.512H104.669ZM120.505 111.168C119.209 111.168 118.041 110.888 117.001 110.328C115.961 109.768 115.145 108.992 114.553 108C113.977 106.992 113.689 105.856 113.689 104.592C113.689 103.328 113.977 102.2 114.553 101.208C115.145 100.216 115.961 99.44 117.001 98.88C118.041 98.32 119.209 98.04 120.505 98.04C121.817 98.04 122.993 98.32 124.033 98.88C125.073 99.44 125.881 100.216 126.457 101.208C127.049 102.2 127.345 103.328 127.345 104.592C127.345 105.856 127.049 106.992 126.457 108C125.881 108.992 125.073 109.768 124.033 110.328C122.993 110.888 121.817 111.168 120.505 111.168ZM120.505 108.6C121.609 108.6 122.521 108.232 123.241 107.496C123.961 106.76 124.321 105.792 124.321 104.592C124.321 103.392 123.961 102.424 123.241 101.688C122.521 100.952 121.609 100.584 120.505 100.584C119.401 100.584 118.489 100.952 117.769 101.688C117.065 102.424 116.713 103.392 116.713 104.592C116.713 105.792 117.065 106.76 117.769 107.496C118.489 108.232 119.401 108.6 120.505 108.6ZM133.07 100.056C133.934 98.712 135.454 98.04 137.63 98.04V100.896C137.374 100.848 137.142 100.824 136.934 100.824C135.766 100.824 134.854 101.168 134.198 101.856C133.542 102.528 133.214 103.504 133.214 104.784V111H130.214V98.184H133.07V100.056ZM148.348 110.304C147.996 110.592 147.564 110.808 147.052 110.952C146.556 111.096 146.028 111.168 145.468 111.168C144.06 111.168 142.972 110.8 142.204 110.064C141.436 109.328 141.052 108.256 141.052 106.848V100.68H138.94V98.28H141.052V95.352H144.052V98.28H147.484V100.68H144.052V106.776C144.052 107.4 144.204 107.88 144.508 108.216C144.812 108.536 145.252 108.696 145.828 108.696C146.5 108.696 147.06 108.52 147.508 108.168L148.348 110.304ZM162.442 104.664C162.442 104.872 162.426 105.168 162.394 105.552H152.338C152.514 106.496 152.97 107.248 153.706 107.808C154.458 108.352 155.386 108.624 156.49 108.624C157.898 108.624 159.058 108.16 159.97 107.232L161.578 109.08C161.002 109.768 160.274 110.288 159.394 110.64C158.514 110.992 157.522 111.168 156.418 111.168C155.01 111.168 153.77 110.888 152.698 110.328C151.626 109.768 150.794 108.992 150.202 108C149.626 106.992 149.338 105.856 149.338 104.592C149.338 103.344 149.618 102.224 150.178 101.232C150.754 100.224 151.546 99.44 152.554 98.88C153.562 98.32 154.698 98.04 155.962 98.04C157.21 98.04 158.322 98.32 159.298 98.88C160.29 99.424 161.058 100.2 161.602 101.208C162.162 102.2 162.442 103.352 162.442 104.664ZM155.962 100.44C155.002 100.44 154.186 100.728 153.514 101.304C152.858 101.864 152.458 102.616 152.314 103.56H159.586C159.458 102.632 159.066 101.88 158.41 101.304C157.754 100.728 156.938 100.44 155.962 100.44ZM179.66 110.304C179.308 110.592 178.876 110.808 178.364 110.952C177.868 111.096 177.34 111.168 176.78 111.168C175.372 111.168 174.284 110.8 173.516 110.064C172.748 109.328 172.364 108.256 172.364 106.848V100.68H170.252V98.28H172.364V95.352H175.364V98.28H178.796V100.68H175.364V106.776C175.364 107.4 175.516 107.88 175.82 108.216C176.124 108.536 176.564 108.696 177.14 108.696C177.812 108.696 178.372 108.52 178.82 108.168L179.66 110.304ZM193.754 104.664C193.754 104.872 193.738 105.168 193.706 105.552H183.65C183.826 106.496 184.282 107.248 185.018 107.808C185.77 108.352 186.698 108.624 187.802 108.624C189.21 108.624 190.37 108.16 191.282 107.232L192.89 109.08C192.314 109.768 191.586 110.288 190.706 110.64C189.826 110.992 188.834 111.168 187.73 111.168C186.322 111.168 185.082 110.888 184.01 110.328C182.938 109.768 182.106 108.992 181.514 108C180.938 106.992 180.65 105.856 180.65 104.592C180.65 103.344 180.93 102.224 181.49 101.232C182.066 100.224 182.858 99.44 183.866 98.88C184.874 98.32 186.01 98.04 187.274 98.04C188.522 98.04 189.634 98.32 190.61 98.88C191.602 99.424 192.37 100.2 192.914 101.208C193.474 102.2 193.754 103.352 193.754 104.664ZM187.274 100.44C186.314 100.44 185.498 100.728 184.826 101.304C184.17 101.864 183.77 102.616 183.626 103.56H190.898C190.77 102.632 190.378 101.88 189.722 101.304C189.066 100.728 188.25 100.44 187.274 100.44ZM207.229 111.168C206.189 111.168 205.173 111.032 204.181 110.76C203.189 110.488 202.397 110.144 201.805 109.728L202.957 107.448C203.533 107.832 204.221 108.144 205.021 108.384C205.837 108.608 206.637 108.72 207.421 108.72C209.213 108.72 210.109 108.248 210.109 107.304C210.109 106.856 209.877 106.544 209.413 106.368C208.965 106.192 208.237 106.024 207.229 105.864C206.173 105.704 205.309 105.52 204.637 105.312C203.981 105.104 203.405 104.744 202.909 104.232C202.429 103.704 202.189 102.976 202.189 102.048C202.189 100.832 202.693 99.864 203.701 99.144C204.725 98.408 206.101 98.04 207.829 98.04C208.709 98.04 209.589 98.144 210.469 98.352C211.349 98.544 212.069 98.808 212.629 99.144L211.477 101.424C210.389 100.784 209.165 100.464 207.805 100.464C206.925 100.464 206.253 100.6 205.789 100.872C205.341 101.128 205.117 101.472 205.117 101.904C205.117 102.384 205.357 102.728 205.837 102.936C206.333 103.128 207.093 103.312 208.117 103.488C209.141 103.648 209.981 103.832 210.637 104.04C211.293 104.248 211.853 104.6 212.317 105.096C212.797 105.592 213.037 106.296 213.037 107.208C213.037 108.408 212.517 109.368 211.477 110.088C210.437 110.808 209.021 111.168 207.229 111.168ZM227.668 104.664C227.668 104.872 227.652 105.168 227.62 105.552H217.564C217.74 106.496 218.196 107.248 218.932 107.808C219.684 108.352 220.612 108.624 221.716 108.624C223.124 108.624 224.284 108.16 225.196 107.232L226.804 109.08C226.228 109.768 225.5 110.288 224.62 110.64C223.74 110.992 222.748 111.168 221.644 111.168C220.236 111.168 218.996 110.888 217.924 110.328C216.852 109.768 216.02 108.992 215.428 108C214.852 106.992 214.564 105.856 214.564 104.592C214.564 103.344 214.844 102.224 215.404 101.232C215.98 100.224 216.772 99.44 217.78 98.88C218.788 98.32 219.924 98.04 221.188 98.04C222.436 98.04 223.548 98.32 224.524 98.88C225.516 99.424 226.284 100.2 226.828 101.208C227.388 102.2 227.668 103.352 227.668 104.664ZM221.188 100.44C220.228 100.44 219.412 100.728 218.74 101.304C218.084 101.864 217.684 102.616 217.54 103.56H224.812C224.684 102.632 224.292 101.88 223.636 101.304C222.98 100.728 222.164 100.44 221.188 100.44ZM233.406 100.056C234.27 98.712 235.79 98.04 237.966 98.04V100.896C237.71 100.848 237.478 100.824 237.27 100.824C236.102 100.824 235.19 101.168 234.534 101.856C233.878 102.528 233.55 103.504 233.55 104.784V111H230.55V98.184H233.406V100.056ZM245.337 98.04C247.225 98.04 248.665 98.496 249.657 99.408C250.665 100.304 251.169 101.664 251.169 103.488V111H248.337V109.44C247.969 110 247.441 110.432 246.753 110.736C246.081 111.024 245.265 111.168 244.305 111.168C243.345 111.168 242.505 111.008 241.785 110.688C241.065 110.352 240.505 109.896 240.105 109.32C239.721 108.728 239.529 108.064 239.529 107.328C239.529 106.176 239.953 105.256 240.801 104.568C241.665 103.864 243.017 103.512 244.857 103.512H248.169V103.32C248.169 102.424 247.897 101.736 247.353 101.256C246.825 100.776 246.033 100.536 244.977 100.536C244.257 100.536 243.545 100.648 242.841 100.872C242.153 101.096 241.569 101.408 241.089 101.808L239.913 99.624C240.585 99.112 241.393 98.72 242.337 98.448C243.281 98.176 244.281 98.04 245.337 98.04ZM244.929 108.984C245.681 108.984 246.345 108.816 246.921 108.48C247.513 108.128 247.929 107.632 248.169 106.992V105.504H245.073C243.345 105.504 242.481 106.072 242.481 107.208C242.481 107.752 242.697 108.184 243.129 108.504C243.561 108.824 244.161 108.984 244.929 108.984ZM120.458 140.168C119.162 140.168 117.994 139.888 116.954 139.328C115.914 138.768 115.098 137.992 114.506 137C113.93 135.992 113.642 134.856 113.642 133.592C113.642 132.328 113.93 131.2 114.506 130.208C115.098 129.216 115.914 128.44 116.954 127.88C117.994 127.32 119.162 127.04 120.458 127.04C121.77 127.04 122.946 127.32 123.986 127.88C125.026 128.44 125.834 129.216 126.41 130.208C127.002 131.2 127.298 132.328 127.298 133.592C127.298 134.856 127.002 135.992 126.41 137C125.834 137.992 125.026 138.768 123.986 139.328C122.946 139.888 121.77 140.168 120.458 140.168ZM120.458 137.6C121.562 137.6 122.474 137.232 123.194 136.496C123.914 135.76 124.274 134.792 124.274 133.592C124.274 132.392 123.914 131.424 123.194 130.688C122.474 129.952 121.562 129.584 120.458 129.584C119.354 129.584 118.442 129.952 117.722 130.688C117.018 131.424 116.666 132.392 116.666 133.592C116.666 134.792 117.018 135.76 117.722 136.496C118.442 137.232 119.354 137.6 120.458 137.6ZM142.575 127.184V140H139.719V138.368C139.239 138.944 138.639 139.392 137.919 139.712C137.199 140.016 136.423 140.168 135.591 140.168C133.879 140.168 132.527 139.696 131.535 138.752C130.559 137.792 130.071 136.376 130.071 134.504V127.184H133.071V134.096C133.071 135.248 133.327 136.112 133.839 136.688C134.367 137.248 135.111 137.528 136.071 137.528C137.143 137.528 137.991 137.2 138.615 136.544C139.255 135.872 139.575 134.912 139.575 133.664V127.184H142.575ZM158.503 127.184L153.007 140H149.911L144.415 127.184H147.535L151.519 136.688L155.623 127.184H158.503ZM172.075 133.664C172.075 133.872 172.059 134.168 172.027 134.552H161.971C162.147 135.496 162.603 136.248 163.339 136.808C164.091 137.352 165.019 137.624 166.123 137.624C167.531 137.624 168.691 137.16 169.603 136.232L171.211 138.08C170.635 138.768 169.907 139.288 169.027 139.64C168.147 139.992 167.155 140.168 166.051 140.168C164.643 140.168 163.403 139.888 162.331 139.328C161.259 138.768 160.427 137.992 159.835 137C159.259 135.992 158.971 134.856 158.971 133.592C158.971 132.344 159.251 131.224 159.811 130.232C160.387 129.224 161.179 128.44 162.187 127.88C163.195 127.32 164.331 127.04 165.595 127.04C166.843 127.04 167.955 127.32 168.931 127.88C169.923 128.424 170.691 129.2 171.235 130.208C171.795 131.2 172.075 132.352 172.075 133.664ZM165.595 129.44C164.635 129.44 163.819 129.728 163.147 130.304C162.491 130.864 162.091 131.616 161.947 132.56H169.219C169.091 131.632 168.699 130.88 168.043 130.304C167.387 129.728 166.571 129.44 165.595 129.44ZM177.812 129.056C178.676 127.712 180.196 127.04 182.372 127.04V129.896C182.116 129.848 181.884 129.824 181.676 129.824C180.508 129.824 179.596 130.168 178.94 130.856C178.284 131.528 177.956 132.504 177.956 133.784V140H174.956V127.184H177.812V129.056ZM193.09 139.304C192.738 139.592 192.306 139.808 191.794 139.952C191.298 140.096 190.77 140.168 190.21 140.168C188.802 140.168 187.714 139.8 186.946 139.064C186.178 138.328 185.794 137.256 185.794 135.848V129.68H183.682V127.28H185.794V124.352H188.794V127.28H192.226V129.68H188.794V135.776C188.794 136.4 188.946 136.88 189.25 137.216C189.554 137.536 189.994 137.696 190.57 137.696C191.242 137.696 191.802 137.52 192.25 137.168L193.09 139.304ZM195.174 123.2H198.726L198.126 134.432H195.75L195.174 123.2ZM196.95 140.168C196.39 140.168 195.926 139.992 195.558 139.64C195.19 139.272 195.006 138.824 195.006 138.296C195.006 137.768 195.19 137.328 195.558 136.976C195.926 136.624 196.39 136.448 196.95 136.448C197.494 136.448 197.942 136.624 198.294 136.976C198.662 137.328 198.846 137.768 198.846 138.296C198.846 138.824 198.662 139.272 198.294 139.64C197.942 139.992 197.494 140.168 196.95 140.168Z" fill="black"/>
</svg>
